<svg viewBox="0 0 48 74" xmlns="http://www.w3.org/2000/svg" xmlns:xlink="http://www.w3.org/1999/xlink"><defs><path d="M34.759.895a4.77 4.77 0 0 0-4.286-.652L6.987 8.07a10.204 10.204 0 0 0-6.985 9.677v37.02a10.204 10.204 0 0 0 5.382 9.176 11.349 11.349 0 0 1-1.028-4.714v-2.456a6.15 6.15 0 0 1-.274-1.804V21.179c.001-4.685 3-8.843 7.444-10.324l20.237-6.742a.656.656 0 0 1 .609.095l.038.03 3.073-1.025c.296-.093.598-.165.904-.214A4.757 4.757 0 0 0 34.76.895z" id="a"/><path d="M40.202 5.142a4.791 4.791 0 0 0-4.29-.669l-3.258 1.098-20.224 6.762a10.196 10.196 0 0 0-6.973 9.678v37.2a10.123 10.123 0 0 0 4.235 8.275c.416.3.855.567 1.311.802a10.954 10.954 0 0 1-.999-2.966 11.571 11.571 0 0 1-.197-2.1v-2.194a6.236 6.236 0 0 1-.27-1.817V25.443a10.877 10.877 0 0 1 7.436-10.324l15.681-5.228 4.085-1.359.463-.159a.707.707 0 0 1 .334-.021l3.386-1.131c.265-.086.535-.153.81-.202a4.761 4.761 0 0 0-1.53-1.877z" id="b"/><path d="M17.517 68.185a6.06 6.06 0 0 1-2.481-4.089 6.561 6.561 0 0 1-.064-.857v-3.428l-2.825.942a6.463 6.463 0 0 1-1.255.279v2.186c0 .637.058 1.272.175 1.898a9.999 9.999 0 0 0 1.59 3.857c.96.301 1.96.454 2.966.455a10.376 10.376 0 0 0 3.201-.515 6.021 6.021 0 0 1-1.307-.728z" id="c"/><path d="M45.64 9.166a4.766 4.766 0 0 0-4.29-.673l-3.253 1.089-1.358.45-4.085 1.363-14.785 4.928a10.183 10.183 0 0 0-6.977 9.678v35.018c.426-.05.847-.144 1.255-.278l2.825-.943v-33.78a6.116 6.116 0 0 1 4.187-5.807l13.495-4.5 4.085-1.359 1.358-.454 4.08-1.359.467-.154a.669.669 0 0 1 .613.09c.176.129.28.334.279.553v10.17l4.084 2.04v-12.21a4.77 4.77 0 0 0-1.98-3.862z" id="d"/><linearGradient x1="50%" y1="0%" x2="50%" y2="100%" id="e"><stop stop-color="#03645D" offset="0%"/><stop stop-color="#027D75" offset="15%"/><stop stop-color="#01958C" offset="33%"/><stop stop-color="#01A79C" offset="53%"/><stop stop-color="#00B1A6" offset="74%"/><stop stop-color="#00B4A9" offset="100%"/></linearGradient><path id="f" d="M42.177 22.516V12.54l-4.08 1.359v6.578z"/><linearGradient x1="49.948%" y1="0%" x2="49.948%" y2="100%" id="g"><stop stop-color="#024E48" offset="0%"/><stop stop-color="#035C56" offset="15%"/><stop stop-color="#036E66" offset="40%"/><stop stop-color="#047870" offset="67%"/><stop stop-color="#047B73" offset="100%"/></linearGradient><path id="h" d="M36.739 19.795v-5.443l-4.085 1.359v2.044z"/><path d="M43.536 47.678v6.673c0 4.683-2.997 8.84-7.44 10.32l-13.067 4.358a6.056 6.056 0 0 1-4.205-.12 10.376 10.376 0 0 1-3.201.514 9.939 9.939 0 0 1-2.966-.454c.672.98 1.509 1.836 2.473 2.529a10.114 10.114 0 0 0 5.932 1.937 10.333 10.333 0 0 0 3.257-.536l16.324-5.443a10.191 10.191 0 0 0 6.977-9.677v-8.066l-4.084-2.035z" id="i"/><linearGradient x1="50.048%" y1="0%" x2="50.048%" y2="100.018%" id="j"><stop stop-color="#00B4A9" offset="0%"/><stop stop-color="#00B2A7" offset="47%"/><stop stop-color="#00ABA1" offset="64%"/><stop stop-color="#01A096" offset="76%"/><stop stop-color="#018F85" offset="86%"/><stop stop-color="#027971" offset="94%"/><stop stop-color="#03645D" offset="100%"/></linearGradient><path d="M38.097 44.96v5.38c0 4.683-2.996 8.842-7.44 10.323l-13.084 4.355a6.064 6.064 0 0 1-2.246.313 6.219 6.219 0 0 0 3.429 3.557h.111l16.32-5.443a10.183 10.183 0 0 0 6.977-9.677v-6.772l-4.067-2.035z" id="k"/><linearGradient x1="50.01%" y1="0%" x2="50.01%" y2="99.902%" id="l"><stop stop-color="#047B73" offset="0%"/><stop stop-color="#047971" offset="53%"/><stop stop-color="#04726B" offset="72%"/><stop stop-color="#03675F" offset="85%"/><stop stop-color="#02564F" offset="96%"/><stop stop-color="#024E48" offset="100%"/></linearGradient><path d="M32.654 42.24v7.285a6.107 6.107 0 0 1-4.182 5.807l-13.5 4.5v3.429c.002.286.024.573.064.857l14.726-4.907a10.196 10.196 0 0 0 6.977-9.682v-5.228l-4.085-2.062z" id="m"/></defs><g fill-rule="nonzero" fill="none"><use fill="#047B73" xlink:href="#a"/><use fill="#FFF" xlink:href="#a"/><use fill="#00B4A9" xlink:href="#b"/><use fill="#FFF" xlink:href="#b"/><use fill="#B2DED9" xlink:href="#c"/><use fill="#FFF" xlink:href="#c"/><use fill="#B2DED9" xlink:href="#d"/><use fill="#FFF" xlink:href="#d"/><use fill="url(#e)" xlink:href="#f"/><use fill="#FFF" xlink:href="#f"/><g><use fill="url(#g)" xlink:href="#h"/><use fill="#FFF" xlink:href="#h"/></g><g><use fill="#B2DED9" xlink:href="#i"/><use fill="#FFF" xlink:href="#i"/></g><g><use fill="url(#j)" xlink:href="#k"/><use fill="#FFF" xlink:href="#k"/></g><g><use fill="url(#l)" xlink:href="#m"/><use fill="#FFF" xlink:href="#m"/></g></g></svg>
